# Blender v2.78 (sub 0) OBJ File: 'SAR_DEVICE.blend'
# www.blender.org
o Transmitters_Cube.000
v 0.045795 4.811328 -0.040146
v 0.045795 4.731036 -0.040146
v 0.045795 4.811328 0.040146
v 0.045795 4.731036 0.040146
v 0.346447 4.921509 -0.150326
v 0.346447 4.620856 -0.150326
v 0.346447 4.921509 0.150326
v 0.346447 4.620856 0.150326
v 0.055872 4.806137 -0.034954
v 0.055872 4.736228 -0.034954
v 0.055872 4.806137 0.034955
v 0.055872 4.736228 0.034955
v 0.331331 4.902069 -0.130886
v 0.331331 4.640296 -0.130886
v 0.331331 4.902069 0.130886
v 0.331331 4.640296 0.130886
v 0.045795 0.076089 -0.040146
v 0.045795 0.156381 -0.040146
v 0.045795 0.076089 0.040146
v 0.045795 0.156381 0.040146
v 0.346447 -0.034091 -0.150326
v 0.346447 0.266562 -0.150326
v 0.346447 -0.034091 0.150326
v 0.346447 0.266562 0.150326
v 0.055872 0.081281 -0.034955
v 0.055872 0.151190 -0.034955
v 0.055872 0.081281 0.034955
v 0.055872 0.151190 0.034955
v 0.331331 -0.014651 -0.130886
v 0.331331 0.247122 -0.130886
v 0.331331 -0.014651 0.130886
v 0.331331 0.247122 0.130886
v 0.045795 2.403562 -2.367620
v 0.045795 2.403562 -2.287327
v 0.045795 2.483855 -2.367620
v 0.045795 2.483855 -2.287327
v 0.346447 2.293382 -2.477800
v 0.346447 2.293382 -2.177147
v 0.346447 2.594035 -2.477800
v 0.346447 2.594035 -2.177147
v 0.055872 2.408754 -2.362428
v 0.055872 2.408754 -2.292519
v 0.055872 2.478663 -2.362428
v 0.055872 2.478663 -2.292519
v 0.331331 2.312822 -2.458360
v 0.331331 2.312822 -2.196587
v 0.331331 2.574595 -2.458360
v 0.331331 2.574595 -2.196587
v 0.045795 2.403562 2.367620
v 0.045795 2.403562 2.287327
v 0.045795 2.483855 2.367620
v 0.045795 2.483855 2.287327
v 0.346447 2.293382 2.477800
v 0.346447 2.293382 2.177147
v 0.346447 2.594035 2.477800
v 0.346447 2.594035 2.177147
v 0.055872 2.408754 2.362428
v 0.055872 2.408754 2.292519
v 0.055872 2.478663 2.362428
v 0.055872 2.478663 2.292519
v 0.331331 2.312822 2.458360
v 0.331331 2.312822 2.196587
v 0.331331 2.574595 2.458360
v 0.331331 2.574595 2.196587
vn 1.0000 0.0000 0.0000
vn -0.3441 -0.0000 0.9389
vn -0.3441 0.0000 -0.9389
vn -0.3441 0.9389 0.0000
vn -0.3441 -0.9389 0.0000
vn 0.3289 0.0000 -0.9444
vn 0.3289 -0.0000 0.9444
vn 0.3289 -0.9444 0.0000
vn 0.3289 0.9444 0.0000
vn 0.7894 -0.6139 0.0000
vn 0.7894 -0.0000 0.6138
vn 0.7894 0.6139 0.0000
vn 0.7894 0.0000 -0.6138
vn 0.7894 0.6138 0.0000
vn 0.7894 -0.6138 0.0000
vn 0.7894 0.0000 0.6139
vn 0.7894 0.0000 -0.6139
s off
f 1//1 4//1 2//1
f 3//2 8//2 7//2
f 6//3 1//3 5//3
f 3//4 5//4 1//4
f 4//5 6//5 8//5
f 11//1 10//1 9//1
f 11//6 16//6 12//6
f 13//7 10//7 14//7
f 9//8 15//8 11//8
f 14//9 12//9 16//9
f 7//10 13//10 5//10
f 13//11 6//11 5//11
f 14//12 8//12 6//12
f 8//13 15//13 7//13
f 18//1 19//1 17//1
f 23//2 20//2 19//2
f 21//3 18//3 22//3
f 17//5 23//5 19//5
f 22//4 20//4 24//4
f 26//1 27//1 25//1
f 28//6 31//6 27//6
f 30//7 25//7 29//7
f 31//9 25//9 27//9
f 28//8 30//8 32//8
f 23//14 29//14 31//14
f 21//11 30//11 29//11
f 24//15 30//15 22//15
f 23//13 32//13 24//13
f 35//1 34//1 33//1
f 36//4 39//4 35//4
f 38//5 33//5 37//5
f 39//3 33//3 35//3
f 36//2 38//2 40//2
f 43//1 42//1 41//1
f 47//8 44//8 43//8
f 41//9 46//9 45//9
f 43//7 45//7 47//7
f 46//6 44//6 48//6
f 39//16 45//16 37//16
f 45//14 38//14 37//14
f 46//13 40//13 38//13
f 48//15 39//15 40//15
f 50//1 51//1 49//1
f 55//4 52//4 51//4
f 49//5 54//5 53//5
f 49//2 55//2 51//2
f 54//3 52//3 56//3
f 58//1 59//1 57//1
f 60//8 63//8 59//8
f 62//9 57//9 61//9
f 59//6 61//6 57//6
f 60//7 62//7 64//7
f 55//13 61//13 63//13
f 54//14 61//14 53//14
f 56//11 62//11 54//11
f 55//15 64//15 56//15
f 1//1 3//1 4//1
f 3//2 4//2 8//2
f 6//3 2//3 1//3
f 3//4 7//4 5//4
f 4//5 2//5 6//5
f 11//1 12//1 10//1
f 11//6 15//6 16//6
f 13//7 9//7 10//7
f 9//8 13//8 15//8
f 14//9 10//9 12//9
f 7//10 15//10 13//10
f 13//11 14//11 6//11
f 14//12 16//12 8//12
f 8//13 16//13 15//13
f 18//1 20//1 19//1
f 23//2 24//2 20//2
f 21//3 17//3 18//3
f 17//5 21//5 23//5
f 22//4 18//4 20//4
f 26//1 28//1 27//1
f 28//6 32//6 31//6
f 30//7 26//7 25//7
f 31//9 29//9 25//9
f 28//8 26//8 30//8
f 23//12 21//12 29//12
f 21//11 22//11 30//11
f 24//15 32//15 30//15
f 23//13 31//13 32//13
f 35//1 36//1 34//1
f 36//4 40//4 39//4
f 38//5 34//5 33//5
f 39//3 37//3 33//3
f 36//2 34//2 38//2
f 43//1 44//1 42//1
f 47//8 48//8 44//8
f 41//9 42//9 46//9
f 43//7 41//7 45//7
f 46//6 42//6 44//6
f 39//11 47//11 45//11
f 45//14 46//14 38//14
f 46//17 48//17 40//17
f 48//15 47//15 39//15
f 50//1 52//1 51//1
f 55//4 56//4 52//4
f 49//5 50//5 54//5
f 49//2 53//2 55//2
f 54//3 50//3 52//3
f 58//1 60//1 59//1
f 60//8 64//8 63//8
f 62//9 58//9 57//9
f 59//6 63//6 61//6
f 60//7 58//7 62//7
f 55//17 53//17 61//17
f 54//14 62//14 61//14
f 56//16 64//16 62//16
f 55//15 63//15 64//15
